# xmcd
#
# Track frame offsets:
#	182
#	17035
#	32902
#	49025
#	67892
#	80207
#	95855
#	111972
#	131017
#	149845
#	167552
#	183307
#	197380
#	222340
#
# Disc length: 3136 seconds
#
# Revision: 0
# Processed by: cddbd v1.4PL0 Copyright (c) Steve Scherf et al.
# Submitted via: dBpowerAMP V4.0
#
DISCID=d00c3e0e
DTITLE=Carlos Dafé - Geração POP
DYEAR=1900
DGENRE=Soul
TTITLE0=Pra Que Vou Recordar O Que Chorei
TTITLE1=Tudo Era Lindo
TTITLE2=Venha Matar Saudades
TTITLE3=Nessa Festa De Luz
TTITLE4=Pra Não Padecer
TTITLE5=Acorda Que Eu Quero Ver
TTITLE6=Escorpião
TTITLE7=Me Envolvi No Seu Corpo
TTITLE8=Pobre De Quem
TTITLE9=Vice Versa
TTITLE10=Lá Vem Ela
TTITLE11=Um Pouco De Sol
TTITLE12=A Cruz
TTITLE13=Adeus
EXTD=
EXTT0=
EXTT1=
EXTT2=
EXTT3=
EXTT4=
EXTT5=
EXTT6=
EXTT7=
EXTT8=
EXTT9=
EXTT10=
EXTT11=
EXTT12=
EXTT13=
PLAYORDER=
